<?xml version="1.0" encoding="utf-8"?>
<!-- Generator: Adobe Illustrator 15.0.0, SVG Export Plug-In . SVG Version: 6.00 Build 0)  -->
<!DOCTYPE svg PUBLIC "-//W3C//DTD SVG 1.1//EN" "http://www.w3.org/Graphics/SVG/1.1/DTD/svg11.dtd">
<svg version="1.1" id="레이어_1" xmlns="http://www.w3.org/2000/svg" xmlns:xlink="http://www.w3.org/1999/xlink" x="0px"
	 y="0px" width="830px" height="257px" viewBox="0 0 830 257" enable-background="new 0 0 830 257" xml:space="preserve">
<g>
	<g>
		<path fill="#B2B2B2" d="M26.203,98.071v61.389c0,5.648-4.583,10.231-10.231,10.231S5.74,165.108,5.74,159.46V98.071
			c0-5.649,4.583-10.231,10.231-10.231c2.819,0,5.388,1.148,7.231,3C25.055,92.684,26.203,95.252,26.203,98.071z"/>
		<path fill="#2B2B2B" d="M15.972,175.148c-8.65,0-15.688-7.038-15.688-15.688V98.071c0-8.65,7.038-15.688,15.688-15.688
			c4.199,0,8.141,1.636,11.099,4.607c2.953,2.941,4.59,6.882,4.59,11.082v61.389C31.66,168.11,24.622,175.148,15.972,175.148z
			 M15.972,93.296c-2.633,0-4.774,2.142-4.774,4.775v61.389c0,2.633,2.142,4.774,4.774,4.774s4.775-2.142,4.775-4.774V98.071
			c0-1.275-0.495-2.47-1.395-3.364C18.441,93.792,17.247,93.296,15.972,93.296z"/>
	</g>
	<g>
		<path fill="#B2B2B2" d="M108.055,98.071v61.389c0,5.648-4.582,10.231-10.231,10.231c-5.648,0-10.231-4.583-10.231-10.231v-51.157
			H46.666v51.157c0,5.648-4.583,10.231-10.231,10.231s-10.231-4.583-10.231-10.231V98.071c0-5.649,4.583-10.231,10.231-10.231
			h61.389C103.473,87.84,108.055,92.422,108.055,98.071z"/>
		<path fill="#2B2B2B" d="M97.823,175.148c-8.65,0-15.688-7.038-15.688-15.688v-45.7H52.123v45.7c0,8.65-7.038,15.688-15.688,15.688
			s-15.688-7.038-15.688-15.688V98.071c0-8.65,7.038-15.688,15.688-15.688h61.389c8.65,0,15.688,7.038,15.688,15.688v61.389
			C113.512,168.11,106.474,175.148,97.823,175.148z M41.21,102.846h51.839v56.614c0,2.633,2.142,4.774,4.774,4.774
			s4.775-2.142,4.775-4.774V98.071c0-2.633-2.143-4.775-4.775-4.775H36.435c-2.633,0-4.774,2.142-4.774,4.775v61.389
			c0,2.633,2.142,4.774,4.774,4.774s4.775-2.142,4.775-4.774V102.846z"/>
	</g>
	<g>
		<path fill="#B2B2B2" d="M353.61,98.071v61.389c0,5.648-4.582,10.231-10.231,10.231c-5.648,0-10.231-4.583-10.231-10.231v-51.157
			h-40.926v51.157c0,5.648-4.583,10.231-10.231,10.231s-10.231-4.583-10.231-10.231V98.071c0-5.649,4.583-10.231,10.231-10.231
			h61.389C349.028,87.84,353.61,92.422,353.61,98.071z"/>
		<path fill="#2B2B2B" d="M343.379,175.148c-8.65,0-15.688-7.038-15.688-15.688v-45.7h-30.012v45.7
			c0,8.65-7.038,15.688-15.688,15.688s-15.688-7.038-15.688-15.688V98.071c0-8.65,7.038-15.688,15.688-15.688h61.389
			c8.65,0,15.688,7.038,15.688,15.688v61.389C359.067,168.11,352.029,175.148,343.379,175.148z M286.766,102.846h51.839v56.614
			c0,2.633,2.142,4.774,4.774,4.774s4.775-2.142,4.775-4.774V98.071c0-2.633-2.143-4.775-4.775-4.775H281.99
			c-2.633,0-4.774,2.142-4.774,4.775v61.389c0,2.633,2.142,4.774,4.774,4.774s4.775-2.142,4.775-4.774V102.846z"/>
	</g>
	<g>
		<g>
			<path fill="#B2B2B2" stroke="#2B2B2B" stroke-width="10.9136" stroke-miterlimit="10" d="M548.01,87.84h-51.158V16.219
				c0-2.819-1.148-5.388-3-7.231c-1.844-1.852-4.412-3-7.231-3c-5.648,0-10.231,4.583-10.231,10.231V159.46
				c0,5.648,4.583,10.231,10.231,10.231h61.39c0.932,0,1.841-0.125,2.693-0.365c0.114-0.021,0.229-0.056,0.352-0.101
				c0.319-0.102,0.626-0.216,0.933-0.342c0.307-0.125,0.604-0.271,0.897-0.432c0.285-0.146,0.57-0.319,0.843-0.511
				c0.271-0.182,0.535-0.376,0.783-0.592c0.25-0.205,0.501-0.432,0.729-0.658c0.227-0.229,0.453-0.477,0.658-0.73
				c0.216-0.247,0.41-0.512,0.592-0.783c0.191-0.271,0.365-0.557,0.512-0.842c0.16-0.293,0.307-0.592,0.432-0.897
				c0.125-0.307,0.239-0.613,0.341-0.933c0.045-0.123,0.08-0.237,0.102-0.352c0.239-0.854,0.364-1.762,0.364-2.694V98.071
				C558.24,92.422,553.658,87.84,548.01,87.84z M537.777,149.229h-40.926v-40.926h40.926V149.229z"/>
		</g>
	</g>
	<g>
		<path fill="#B2B2B2" d="M578.704,98.071v61.389c0,5.648-4.583,10.231-10.231,10.231c-5.649,0-10.232-4.583-10.232-10.231V98.071
			c0-5.649,4.583-10.231,10.232-10.231c2.818,0,5.387,1.148,7.23,3C577.556,92.684,578.704,95.252,578.704,98.071z"/>
		<path fill="#2B2B2B" d="M568.473,175.148c-8.651,0-15.689-7.038-15.689-15.688V98.071c0-8.65,7.038-15.688,15.689-15.688
			c4.199,0,8.14,1.636,11.098,4.607c2.954,2.94,4.591,6.882,4.591,11.082v61.389C584.161,168.11,577.123,175.148,568.473,175.148z
			 M568.473,93.296c-2.633,0-4.775,2.142-4.775,4.775v61.389c0,2.633,2.143,4.774,4.775,4.774s4.774-2.142,4.774-4.774V98.071
			c0-1.275-0.495-2.469-1.394-3.364C570.941,93.792,569.747,93.296,568.473,93.296z"/>
	</g>
	<g>
		<path fill="#B2B2B2" d="M425.231,87.84h-61.389c-5.649,0-10.232,4.583-10.232,10.231v61.389c0,5.648,4.583,10.231,10.232,10.231
			H415v61.389h-40.926v-10.231c0-2.818-1.148-5.388-3.001-7.231c-1.844-1.852-4.412-3-7.23-3c-5.649,0-10.232,4.583-10.232,10.231
			v20.463c0,5.649,4.583,10.231,10.232,10.231h61.389c0.933,0,1.841-0.125,2.693-0.364c0.115-0.021,0.229-0.057,0.353-0.102
			c0.319-0.102,0.626-0.216,0.932-0.341c0.307-0.125,0.605-0.272,0.898-0.432c0.285-0.146,0.57-0.32,0.842-0.512
			c0.271-0.182,0.536-0.376,0.783-0.592c0.251-0.205,0.501-0.432,0.73-0.658c0.227-0.229,0.453-0.477,0.658-0.729
			c0.216-0.248,0.41-0.512,0.592-0.783c0.191-0.272,0.364-0.558,0.511-0.843c0.16-0.293,0.307-0.591,0.432-0.897
			c0.126-0.307,0.24-0.613,0.342-0.933c0.045-0.123,0.079-0.237,0.101-0.352c0.24-0.853,0.365-1.762,0.365-2.694V159.46V98.071
			C435.463,92.422,430.88,87.84,425.231,87.84z M374.074,149.229v-40.926H415v40.926H374.074z"/>
		<path fill="#2B2B2B" d="M425.231,257h-61.389c-8.651,0-15.689-7.038-15.689-15.688v-20.463c0-8.65,7.038-15.688,15.689-15.688
			c4.198,0,8.14,1.636,11.098,4.606c2.954,2.941,4.591,6.883,4.591,11.082v4.774h30.012v-50.475h-45.7
			c-8.651,0-15.689-7.038-15.689-15.688V98.071c0-8.65,7.038-15.688,15.689-15.688h61.389c8.65,0,15.688,7.038,15.688,15.688v143.24
			c0,1.365-0.176,2.709-0.521,3.996c-0.061,0.264-0.138,0.527-0.231,0.798c-0.14,0.43-0.294,0.844-0.464,1.258
			c-0.183,0.447-0.4,0.904-0.66,1.384c-0.243,0.467-0.521,0.927-0.828,1.367c-0.299,0.443-0.599,0.84-0.913,1.207
			c-0.293,0.356-0.616,0.713-0.964,1.063c-0.378,0.374-0.731,0.694-1.087,0.987c-0.366,0.315-0.765,0.617-1.213,0.92
			c-0.446,0.311-0.909,0.592-1.378,0.836c-0.483,0.261-0.939,0.478-1.392,0.661c-0.404,0.166-0.815,0.318-1.241,0.457
			c-0.273,0.096-0.539,0.173-0.803,0.234C427.937,256.825,426.594,257,425.231,257z M363.843,216.074
			c-2.633,0-4.775,2.142-4.775,4.774v20.463c0,2.633,2.143,4.774,4.775,4.774h61.389c0.428,0,0.838-0.054,1.219-0.161l0.191-0.054
			c0.172-0.056,0.337-0.118,0.502-0.186c0.126-0.052,0.243-0.112,0.358-0.176l0.112-0.059c0.026-0.014,0.098-0.053,0.19-0.118
			l0.11-0.075c0.078-0.053,0.156-0.104,0.228-0.166l0.138-0.116c0.12-0.099,0.239-0.207,0.349-0.315
			c0.06-0.061,0.162-0.171,0.254-0.283l0.121-0.146c0.064-0.073,0.119-0.154,0.174-0.235l0.07-0.103
			c0.047-0.067,0.09-0.138,0.122-0.199l0.065-0.124c0.061-0.111,0.119-0.224,0.167-0.34c0.069-0.169,0.129-0.325,0.182-0.487
			l0.062-0.217c0.106-0.379,0.16-0.787,0.16-1.215V98.071c0-2.633-2.142-4.774-4.774-4.774h-61.389
			c-2.633,0-4.775,2.142-4.775,4.774v61.389c0,2.633,2.143,4.774,4.775,4.774h56.614v72.303h-51.84v-15.688
			c0-1.274-0.495-2.47-1.394-3.364C366.312,216.569,365.117,216.074,363.843,216.074z M420.457,154.686h-51.84v-51.84h51.84V154.686
			z M379.531,143.771h30.012V113.76h-30.012V143.771z"/>
	</g>
	<g>
		<path fill="#B2B2B2" stroke="#2B2B2B" stroke-width="10.9136" stroke-miterlimit="10" d="M261.527,149.229h-10.231V98.071
			c0-2.819-1.148-5.388-3-7.231c-1.844-1.852-4.412-3-7.231-3h-40.926c-5.648,0-10.231,4.583-10.231,10.231v61.389
			c0,5.648,4.583,10.231,10.231,10.231h61.389c2.819,0,5.388-1.148,7.231-3c1.852-1.844,3-4.412,3-7.231
			C271.759,153.812,267.176,149.229,261.527,149.229z M230.833,149.229H210.37v-40.926h20.463V149.229z"/>
	</g>
	<g>
		<path fill="#B2B2B2" d="M660.556,159.46c0,0.933-0.125,1.841-0.365,2.694L660.556,159.46z"/>
		<path fill="#2B2B2B" d="M665.443,163.633l-10.66-2.212l0.365-2.694l10.864,0.733C666.013,160.887,665.821,162.29,665.443,163.633z
			"/>
	</g>
	<g>
		<path fill="#B2B2B2" d="M660.556,128.766v30.694l-0.365,2.694c-0.021,0.114-0.056,0.229-0.101,0.352
			c-0.021,0.059-0.035,0.125-0.057,0.184c-0.08,0.261-0.184,0.501-0.285,0.749c-0.125,0.306-0.271,0.604-0.432,0.897
			c-0.146,0.285-0.319,0.57-0.512,0.842c-0.181,0.271-0.375,0.536-0.591,0.783c-0.205,0.254-0.432,0.501-0.658,0.73
			c-0.229,0.227-0.479,0.453-0.73,0.658c-0.248,0.216-0.512,0.41-0.783,0.592c-0.271,0.191-0.557,0.364-0.842,0.511
			c-0.293,0.16-0.592,0.307-0.898,0.432c-0.247,0.102-0.487,0.206-0.748,0.285c-0.059,0.021-0.126,0.035-0.185,0.057
			c-0.122,0.045-0.236,0.079-0.352,0.101c-0.205,0.059-0.421,0.115-0.637,0.16c0,0-0.011,0-0.021,0
			c-0.205,0.045-0.41,0.08-0.615,0.104c-0.466,0.067-0.943,0.102-1.42,0.102h-61.389c-5.649,0-10.231-4.583-10.231-10.231
			s4.582-10.231,10.231-10.231h51.157v-10.231h-51.157c-5.649,0-10.231-4.583-10.231-10.231V98.071
			c0-5.649,4.582-10.231,10.231-10.231h61.389c5.648,0,10.231,4.583,10.231,10.231c0,2.819-1.148,5.387-3,7.231
			c-1.844,1.852-4.412,3-7.231,3h-51.157v10.231h51.157C655.973,118.534,660.556,123.117,660.556,128.766z"/>
		<path fill="#2B2B2B" d="M650.324,175.148h-61.389c-8.65,0-15.688-7.038-15.688-15.688c0-7.532,5.336-13.842,12.427-15.348
			c-7.091-1.505-12.427-7.814-12.427-15.347V98.071c0-8.65,7.038-15.688,15.688-15.688h61.389c8.65,0,15.688,7.038,15.688,15.688
			c0,4.198-1.636,8.14-4.606,11.098c-2.162,2.171-4.863,3.63-7.811,4.251c7.086,1.509,12.417,7.816,12.417,15.345v31.063
			l-0.459,3.334c-0.065,0.346-0.156,0.688-0.276,1.04c-0.017,0.057-0.034,0.112-0.053,0.168c-0.114,0.36-0.248,0.702-0.39,1.046
			c-0.223,0.545-0.441,1.004-0.699,1.479c-0.245,0.47-0.524,0.93-0.831,1.369c-0.298,0.442-0.597,0.838-0.91,1.204
			c-0.285,0.348-0.606,0.702-0.955,1.056c-0.388,0.384-0.743,0.705-1.099,0.999c-0.369,0.316-0.767,0.617-1.211,0.917
			c-0.44,0.308-0.901,0.587-1.371,0.832c-0.478,0.259-0.936,0.477-1.397,0.664l-0.077,0.032c-0.316,0.131-0.631,0.255-0.961,0.363
			l-0.262,0.083c-0.244,0.083-0.485,0.152-0.729,0.209c-0.273,0.075-0.557,0.146-0.84,0.204l-0.633,0.115
			c-0.137,0.021-0.273,0.041-0.41,0.058C651.75,175.099,651.035,175.148,650.324,175.148z M588.936,154.686
			c-2.633,0-4.774,2.142-4.774,4.774s2.142,4.774,4.774,4.774h61.389c0.216,0,0.431-0.015,0.639-0.045l0.514-0.098
			c0.014-0.005,0.028-0.009,0.042-0.013l0.708-0.242c0.132-0.054,0.244-0.112,0.356-0.173l0.124-0.065
			c0.06-0.031,0.128-0.072,0.19-0.117l0.11-0.075c0.081-0.054,0.161-0.109,0.235-0.173l0.129-0.109
			c0.121-0.099,0.24-0.207,0.351-0.316c0.051-0.053,0.154-0.161,0.246-0.275l0.136-0.161c0.059-0.067,0.108-0.143,0.157-0.217
			l0.091-0.132c0.041-0.058,0.08-0.122,0.11-0.18l0.065-0.124c0.062-0.113,0.121-0.228,0.169-0.346l0.132-0.323
			c0.003-0.01,0.006-0.02,0.009-0.03l0.261-1.928v-30.326c0-2.633-2.142-4.775-4.774-4.775H593.71v-21.145h56.614
			c1.274,0,2.47-0.495,3.364-1.394c0.915-0.912,1.41-2.106,1.41-3.381c0-2.633-2.142-4.775-4.774-4.775h-61.389
			c-2.633,0-4.774,2.142-4.774,4.775v30.694c0,2.633,2.142,4.774,4.774,4.774h56.614v21.146H588.936z"/>
	</g>
	<g>
		<path fill="#B2B2B2" d="M189.907,128.766v30.694l-0.365,2.694c-0.021,0.114-0.056,0.229-0.102,0.352
			c-0.021,0.059-0.034,0.125-0.056,0.184c-0.08,0.261-0.184,0.501-0.285,0.749c-0.125,0.306-0.271,0.604-0.432,0.897
			c-0.146,0.285-0.319,0.57-0.512,0.842c-0.181,0.271-0.375,0.536-0.591,0.783c-0.206,0.254-0.432,0.501-0.658,0.73
			c-0.229,0.227-0.479,0.453-0.73,0.658c-0.248,0.216-0.512,0.41-0.783,0.592c-0.271,0.191-0.557,0.364-0.842,0.511
			c-0.293,0.16-0.592,0.307-0.898,0.432c-0.247,0.102-0.487,0.206-0.748,0.285c-0.059,0.021-0.126,0.035-0.185,0.057
			c-0.122,0.045-0.237,0.079-0.352,0.101c-0.205,0.059-0.421,0.115-0.637,0.16c0,0-0.011,0-0.021,0
			c-0.205,0.045-0.41,0.08-0.615,0.104c-0.466,0.067-0.943,0.102-1.42,0.102h-61.389c-5.649,0-10.232-4.583-10.232-10.231
			s4.583-10.231,10.232-10.231h51.157v-10.231h-51.157c-5.649,0-10.232-4.583-10.232-10.231V98.071
			c0-5.649,4.583-10.231,10.232-10.231h61.389c5.648,0,10.231,4.583,10.231,10.231c0,2.819-1.148,5.387-3,7.231
			c-1.844,1.852-4.413,3-7.231,3h-51.157v10.231h51.157C185.324,118.534,189.907,123.117,189.907,128.766z"/>
		<path fill="#2B2B2B" d="M179.676,175.148h-61.389c-8.651,0-15.688-7.038-15.688-15.688c0-7.532,5.336-13.842,12.426-15.348
			c-7.09-1.505-12.426-7.814-12.426-15.347V98.071c0-8.65,7.037-15.688,15.688-15.688h61.389c8.65,0,15.688,7.038,15.688,15.688
			c0,4.198-1.637,8.14-4.606,11.098c-2.162,2.171-4.863,3.63-7.811,4.251c7.086,1.509,12.417,7.816,12.417,15.345v31.063
			l-0.456,3.313c-0.063,0.35-0.154,0.695-0.276,1.052c-0.017,0.057-0.034,0.111-0.052,0.166c-0.113,0.358-0.245,0.698-0.386,1.039
			l-0.041,0.101c-0.192,0.469-0.408,0.922-0.664,1.395c-0.244,0.47-0.524,0.931-0.833,1.373c-0.3,0.444-0.599,0.84-0.912,1.206
			c-0.287,0.349-0.607,0.702-0.954,1.053c-0.386,0.383-0.74,0.703-1.096,0.998c-0.371,0.317-0.77,0.619-1.215,0.919
			c-0.44,0.308-0.9,0.586-1.369,0.83c-0.477,0.259-0.934,0.476-1.395,0.664l-0.086,0.036c-0.314,0.13-0.628,0.253-0.955,0.36
			l-0.262,0.083c-0.245,0.083-0.484,0.152-0.725,0.208c-0.275,0.076-0.56,0.146-0.844,0.205l-0.632,0.115
			c-0.138,0.021-0.275,0.041-0.412,0.058C181.101,175.099,180.387,175.148,179.676,175.148z M118.287,154.686
			c-2.633,0-4.775,2.142-4.775,4.774s2.143,4.774,4.775,4.774h61.389c0.216,0,0.431-0.015,0.639-0.045l0.514-0.098
			c0.014-0.004,0.028-0.009,0.042-0.013l0.712-0.244c0.126-0.051,0.239-0.109,0.352-0.171l0.125-0.065
			c0.06-0.031,0.128-0.072,0.19-0.117l0.113-0.078c0.08-0.053,0.16-0.106,0.232-0.17l0.125-0.106
			c0.122-0.099,0.242-0.209,0.354-0.319c0.053-0.054,0.157-0.165,0.251-0.28l0.132-0.156c0.06-0.069,0.11-0.146,0.161-0.222
			l0.083-0.121c0.06-0.084,0.097-0.152,0.114-0.186l0.063-0.118c0.063-0.117,0.125-0.236,0.175-0.358l0.127-0.313
			c0.004-0.011,0.007-0.022,0.01-0.033l0.262-1.928v-30.326c0-2.633-2.142-4.775-4.774-4.775h-56.614v-21.145h56.614
			c1.274,0,2.47-0.495,3.364-1.394c0.915-0.912,1.41-2.106,1.41-3.381c0-2.633-2.142-4.775-4.774-4.775h-61.389
			c-2.633,0-4.775,2.142-4.775,4.775v30.694c0,2.633,2.143,4.774,4.775,4.774H174.9v21.146H118.287z"/>
	</g>
	<g>
		<g>
			<path fill="#B2B2B2" stroke="#2B2B2B" stroke-width="10.9136" stroke-miterlimit="10" d="M732.176,138.997
				c2.819,0,5.388-1.148,7.231-3c1.852-1.844,3-4.412,3-7.231V98.071c0-5.649-4.583-10.231-10.231-10.231h-61.389
				c-5.648,0-10.231,4.583-10.231,10.231v61.389c0,5.648,4.583,10.231,10.231,10.231h61.389c2.819,0,5.388-1.148,7.231-3
				c1.852-1.844,3-4.412,3-7.231c0-5.648-4.583-10.231-10.231-10.231h-51.157v-10.231H732.176z M681.019,108.303h40.926v10.231
				h-40.926V108.303z"/>
		</g>
	</g>
	<g>
		<path fill="#B2B2B2" d="M814.028,87.84h-61.39c-5.648,0-10.231,4.583-10.231,10.231v61.389c0,5.648,4.583,10.231,10.231,10.231
			h61.39c0.933,0,1.841-0.125,2.693-0.365c0.114-0.021,0.229-0.056,0.352-0.101c0.319-0.102,0.626-0.216,0.933-0.342
			c0.307-0.125,0.604-0.271,0.898-0.432c0.284-0.146,0.569-0.319,0.842-0.511c0.271-0.182,0.535-0.376,0.783-0.592
			c0.25-0.205,0.501-0.432,0.729-0.658c0.227-0.229,0.453-0.477,0.658-0.73c0.216-0.247,0.411-0.512,0.592-0.783
			c0.192-0.271,0.365-0.557,0.512-0.842c0.16-0.293,0.307-0.592,0.432-0.897c0.125-0.307,0.239-0.613,0.341-0.933
			c0.045-0.123,0.08-0.237,0.102-0.352c0.239-0.854,0.365-1.762,0.365-2.694V98.071C824.26,92.422,819.677,87.84,814.028,87.84z
			 M803.797,149.229H762.87v-40.926h40.927V149.229z"/>
		<path fill="#2B2B2B" d="M814.028,175.148h-61.39c-8.65,0-15.688-7.038-15.688-15.688V98.071c0-8.65,7.038-15.688,15.688-15.688
			h61.39c8.65,0,15.688,7.038,15.688,15.688v61.389c0,1.361-0.176,2.705-0.521,3.996c-0.061,0.263-0.138,0.527-0.233,0.799
			c-0.138,0.425-0.29,0.834-0.457,1.243c-0.19,0.466-0.407,0.922-0.665,1.397c-0.245,0.47-0.524,0.93-0.831,1.369
			c-0.296,0.44-0.596,0.836-0.911,1.205c-0.286,0.347-0.606,0.702-0.955,1.055c-0.375,0.372-0.731,0.695-1.095,0.996
			c-0.371,0.318-0.771,0.621-1.217,0.923c-0.441,0.306-0.9,0.585-1.367,0.828c-0.482,0.261-0.94,0.479-1.398,0.665
			c-0.399,0.165-0.812,0.318-1.239,0.457c-0.271,0.095-0.537,0.173-0.804,0.234C816.735,174.974,815.393,175.148,814.028,175.148z
			 M752.639,93.296c-2.633,0-4.774,2.142-4.774,4.775v61.389c0,2.633,2.142,4.774,4.774,4.774h61.39c0.427,0,0.835-0.054,1.213-0.16
			l0.218-0.062c0.161-0.053,0.317-0.112,0.474-0.177c0.133-0.054,0.247-0.113,0.36-0.176l0.111-0.059
			c0.064-0.033,0.137-0.077,0.205-0.125l0.103-0.07c0.081-0.054,0.161-0.109,0.235-0.173l0.121-0.103
			c0.119-0.099,0.239-0.206,0.349-0.314c0.06-0.062,0.163-0.17,0.255-0.284l0.136-0.161c0.059-0.067,0.109-0.143,0.158-0.217
			l0.091-0.132c0.041-0.058,0.08-0.122,0.11-0.18l0.065-0.124c0.062-0.113,0.121-0.228,0.169-0.346
			c0.067-0.165,0.132-0.334,0.188-0.512l0.051-0.18c0.107-0.386,0.162-0.796,0.162-1.222V98.071c0-2.633-2.142-4.775-4.774-4.775
			H752.639z M809.254,154.686h-51.841v-51.839h51.841V154.686z M768.327,143.771h30.013V113.76h-30.013V143.771z"/>
	</g>
</g>
</svg>
